<svg width="219" height="69" viewBox="0 0 219 69" fill="none" xmlns="http://www.w3.org/2000/svg">
<path d="M0.97375 67V2.68H49.1658V20.44H23.2458V25.912H43.4058V43.48H23.2458V49.24H49.1658V67H0.97375ZM102.813 0.759995V67H81.5973L81.4053 64.888C77.8853 67.128 74.5253 68.248 71.3253 68.248C64.2853 68.248 59.3573 66.104 56.5413 61.816C53.7253 57.464 52.3173 51.128 52.3173 42.808C52.3173 25.784 59.3893 17.272 73.5333 17.272L81.3093 17.848V0.759995H102.813ZM78.2373 34.648C76.5093 34.648 75.3573 35.352 74.7812 36.76C74.2693 38.168 74.0133 40.184 74.0133 42.808C74.0133 45.368 74.3013 47.352 74.8773 48.76C75.4533 50.168 76.6053 50.872 78.3333 50.872L81.3093 50.584V34.936C79.9013 34.744 78.8773 34.648 78.2373 34.648ZM136.731 18.52H158.235V67H136.923V64.696C132.827 67.064 129.179 68.248 125.979 68.248C119.195 68.248 114.459 66.296 111.771 62.392C109.083 58.424 107.739 52.152 107.739 43.576V18.52H129.243V42.136C129.243 45.016 129.499 47 130.011 48.088C130.523 49.176 131.355 49.72 132.507 49.72L136.731 49.144V18.52ZM182.826 2.68L188.682 20.344L196.17 2.68H218.058L204.138 33.304L217.194 67H194.346L188.682 49.912L182.826 67H160.169L173.898 36.184L160.169 2.68H182.826Z" fill="white"/>
</svg>
